<?xml version="1.0" encoding="UTF-8"?>
<svg id="Camada_1" data-name="Camada 1" xmlns="http://www.w3.org/2000/svg" xmlns:xlink="http://www.w3.org/1999/xlink" viewBox="0 0 423.57 473.97">
  <defs>
    <style>
      .cls-1 {
        fill: url(#Gradiente_sem_nome_4);
      }
    </style>
    <linearGradient id="Gradiente_sem_nome_4" data-name="Gradiente sem nome 4" x1="211.14" y1="475.73" x2="211.14" y2="1.34" gradientTransform="translate(.17 -.97) rotate(-.11)" gradientUnits="userSpaceOnUse">
      <stop offset="0" stop-color="#ffe999"/>
      <stop offset=".17" stop-color="#e8d186"/>
      <stop offset=".52" stop-color="#ae9458"/>
      <stop offset="1" stop-color="#573812"/>
    </linearGradient>
  </defs>
  <path class="cls-1" d="M408.87,265.68c-6.67-13.88-13.33-27.76-20-41.64,11.3,7.15,22.02,23.37,31.53,39.31-3.17-31.88-22.6-63.05-35.1-85.64,8.78,3.78,31.93,37.81,38.27,53.75-9.51-47.82-40.83-93.45-40.83-93.45,0,0,20.43,5.97,31.32,16.93-20.29-50.94-49.13-92.58-98.96-121.06C246.4-5.37,159.77-13.08,90.05,24.33c-14.06,7.55-32.11,23-43.81,33.88-6.76,6.28-4.59,15.96-10.07,23.5-11.54,15.9-25.61,29.54-31.7,47.82-6.43,19.33-4.38,43.37,2.5,62.78-3.4-12.87,6.99-26.14,19.45-30.66,12.4-4.5,37.63-5.39,50.78-3.46C60.62,198.19,33.78,233.8,0,260.65c79.44-43.03,180.07-43.77,260.13-1.92,80.07,41.86,137.29,125.11,147.93,215.24,7.59-72.86.94-147.2-19.46-217.53,13.44,8.46,21.47,23.81,25.46,45.17,3.17-9.56-.98-27.17-5.19-35.93Z"/>
</svg>