<?xml version="1.0" encoding="UTF-8"?>
<svg id="Camada_1" data-name="Camada 1" xmlns="http://www.w3.org/2000/svg" xmlns:xlink="http://www.w3.org/1999/xlink" viewBox="0 0 571.08 197.93">
  <defs>
    <style>
      .cls-1 {
        fill: url(#Gradiente_sem_nome_4-3);
      }

      .cls-2 {
        fill: url(#Gradiente_sem_nome_4);
      }

      .cls-3 {
        fill: url(#Gradiente_sem_nome_4-5);
      }

      .cls-4 {
        fill: url(#Gradiente_sem_nome_4-4);
      }

      .cls-5 {
        fill: url(#Gradiente_sem_nome_4-2);
      }

      .cls-6 {
        fill: url(#Gradiente_sem_nome_4-6);
      }
    </style>
    <linearGradient id="Gradiente_sem_nome_4" data-name="Gradiente sem nome 4" x1="513.79" y1="128.88" x2="513.79" y2="1.81" gradientTransform="translate(.43 -.83) rotate(-.11)" gradientUnits="userSpaceOnUse">
      <stop offset="0" stop-color="#ffe999"/>
      <stop offset=".17" stop-color="#e8d186"/>
      <stop offset=".52" stop-color="#ae9458"/>
      <stop offset="1" stop-color="#573812"/>
    </linearGradient>
    <linearGradient id="Gradiente_sem_nome_4-2" data-name="Gradiente sem nome 4" x1="53.94" y1="197.65" x2="53.94" y2="86.25" xlink:href="#Gradiente_sem_nome_4"/>
    <linearGradient id="Gradiente_sem_nome_4-3" data-name="Gradiente sem nome 4" x1="160.62" y1="197.65" x2="160.62" y2="86.25" xlink:href="#Gradiente_sem_nome_4"/>
    <linearGradient id="Gradiente_sem_nome_4-4" data-name="Gradiente sem nome 4" x1="277.22" y1="197.65" x2="277.22" y2="86.09" xlink:href="#Gradiente_sem_nome_4"/>
    <linearGradient id="Gradiente_sem_nome_4-5" data-name="Gradiente sem nome 4" x1="386.83" y1="199.51" x2="386.83" y2="86.25" xlink:href="#Gradiente_sem_nome_4"/>
    <linearGradient id="Gradiente_sem_nome_4-6" data-name="Gradiente sem nome 4" x1="496.82" y1="199.04" x2="496.82" y2="84.54" xlink:href="#Gradiente_sem_nome_4"/>
  </defs>
  <path class="cls-2" d="M567.14,71.17c-1.79-3.72-3.57-7.44-5.36-11.15,3.03,1.92,5.9,6.26,8.44,10.53-.85-8.54-6.05-16.89-9.4-22.94,2.35,1.01,8.55,10.13,10.25,14.4-2.55-12.81-10.94-25.03-10.94-25.03,0,0,5.47,1.6,8.39,4.54-5.44-13.65-13.16-24.8-26.51-32.43-18.4-10.52-41.61-12.58-60.28-2.56-3.77,2.02-8.6,6.16-11.74,9.08-1.81,1.68-1.23,4.27-2.7,6.3-3.09,4.26-6.86,7.91-8.49,12.81-1.72,5.18-1.17,11.62.67,16.82-.91-3.45,1.87-7,5.21-8.21,3.32-1.21,10.08-1.44,13.6-.93-4.44,10.71-11.63,20.25-20.68,27.44,21.28-11.53,48.23-11.73,69.68-.51,21.45,11.21,36.77,33.51,39.62,57.65,2.03-19.52.25-39.43-5.21-58.27,3.6,2.27,5.75,6.38,6.82,12.1.85-2.56-.26-7.28-1.39-9.62Z"/>
  <path class="cls-5" d="M85.88,106.6c-5.06,7.75-18.71,29.13-23.62,36.56l.06,31.1c.01,5.88.18,12.53,1.72,14.7,3.08,4.48,8.62,5.4,13.09,6.16v1.55s-47.38.09-47.38.09v-1.55c5.38-.63,8.76-1.1,13.37-6.37,2-2.17,1.98-10.22,2.12-16.87.14-5.73.28-13.46.26-24.76-1.08-1.7-18.83-30.76-24.69-39.87C13.09,95.29,8.31,87.56,0,86.96v-1.55s46.92-.09,46.92-.09v1.55c-6,.63-13.38,1.26-13.37,6.52,0,2.63,3.71,8.81,6.95,14.38,4.32,7.42,13.27,21.79,20.06,32.92,5.22-7.75,16.72-26.18,20.55-32.69,1.84-3.1,5.52-9.14,5.51-13.32-.01-6.5-7.4-6.95-13.09-7.87v-1.55s35.53-.07,35.53-.07v1.55c-11.38,1.72-15.67,8.39-23.19,19.85Z"/>
  <path class="cls-1" d="M204.66,196.43l-94.15.18v-1.55c5.07-.78,9.84-2.65,12.6-5.9,1.99-2.48,2.6-10.06,2.74-16.72.14-5.73.27-20.73.25-32.03l-.06-30.17c-.01-7.27-.19-16.4-2.65-19.03-3.08-3.24-6.16-3.7-11.7-4.46v-1.55s84.91-.16,84.91-.16l10.51,25.51-1.54.78c-8.33-10.35-16.34-17.45-23.42-21-3.54-1.7-13.54-3.07-26.93-3.04-4.31,0-9.69.33-11.69.8-.3,3.25-.74,14.55-.72,28.16.03,15.63.19,21.04.2,22.13,1.85,0,14-.03,19.38-1.28,12.45-2.96,15.36-9.78,17.8-21.39h1.85s.09,48.74.09,48.74h-1.85c-1.7-6.49-5.41-14.69-9.11-18.08-3.24-2.93-7.85-4.94-14.01-5.23-6.15-.3-7.54-.29-14-.28-.3,2.79-.29,8.97-.28,15.01.01,5.57.03,14.39.19,18.41.17,6.65.49,13.15,2.34,15.93,1.85,2.78,9.85,4,18.01,3.99,3.38,0,9.38-.17,15.23-.96,12.92-1.73,21.83-9.17,31.95-26.83l1.69.46-7.63,29.57Z"/>
  <path class="cls-4" d="M304.65,196.23c-3.54-3.71-2.47-2.16-8.94-11.74-7.71-11.44-11.26-17.93-21.13-29.36-4.01-4.63-9.09-9.42-14.33-10.49-3.85-.77-5.08-.61-8-.76.03,13.31.04,23.21.21,30.02.17,6.65.02,11.3,2.03,14.39,1.7,2.63,6.32,6.18,14.63,6.47v1.55s-49.22.09-49.22.09v-1.55c5.07-.78,10.3-2.34,12.91-5.6,2.15-2.63,2.29-10.37,2.43-17.03.14-5.73.27-20.73.25-32.03l-.06-30.17c-.01-7.27-.19-16.09-2.65-18.72-3.08-3.24-6.62-4.01-12.16-4.77v-1.55c3.23,0,31.07-.22,42.15-.24,13.69-.03,24.15.11,32.93,4.73,8.93,4.78,15.1,12.66,15.12,25.04.03,15.16-11.65,24.16-25.33,28.52v.46c3.54,1.85,6.78,5.56,9.87,9.88,5.4,7.73,12.19,17.77,17.12,24.72,7.56,10.82,14.03,15.14,23.72,16.51v1.55s-31.53.06-31.53.06ZM277.98,90.29c-4.93-2.31-10.47-3.23-16.31-3.22-4.31,0-6.92.32-8.31.48-.46,2.48-.61,2.63-.9,11.92-.43,14.39-.23,39.15-.23,42.4,8.31-.02,15.54-.65,22.3-2.83,13.22-4.2,18.59-14.27,18.57-25.41-.02-10.21-5.27-18.71-15.12-23.34Z"/>
  <path class="cls-3" d="M433.98,95.72c-1.38,3.1-1.97,13.93-2.11,23.37-.14,8.82-.58,19.65-.86,33.42-.28,11.61.09,45.34-44.83,45.42-44.15.09-44.68-33.03-44.69-40.76-.01-5.72.12-15.47.1-26.77l-.04-20.58c-.01-7.27-.03-15.32-2.34-18.1-2.93-3.4-7.08-4.78-12.47-5.39v-1.55s45.84-.09,45.84-.09v1.55c-5.84.79-13.68,2.81-13.97,12.41-.29,10.68-.28,15.47-.26,26.61.03,14.24.04,21.35.21,31.26.5,21.97,12.38,36.18,32.84,36.14,34.92-.07,36.56-26.38,36.83-47.26.13-11.14-.03-17.48-.05-26.3-.02-8.2-.19-17.79-1.73-22.12-2.01-5.72-6.63-9.43-16.48-10.8v-1.55s38.15-.07,38.15-.07v1.55c-7.53,1.1-11.68,3.74-14.13,9.62Z"/>
  <path class="cls-6" d="M495.56,197.26c-20,.04-28.32-6.91-29.4-6.91-.62,0-3.07,3.1-4.76,5.42h-1.38s-.52-30.79-.52-30.79h1.54c3.71,10.98,12.04,21.95,19.12,25.65,3.54,1.85,9.85,4.16,15.24,4.15,15.07-.03,25.52-9.18,25.49-23.26-.02-11.6-7.88-16.7-17.73-20.39-10.01-3.69-13.39-4.46-22.63-8-10.62-4.16-20.33-14.66-20.36-27.97-.04-22.13,17.32-32.37,36.86-32.41,18.46-.04,25.86,7.38,26.47,7.38s3.07-3.1,4.6-5.58h1.69s.06,28.62.06,28.62h-1.69c-5.1-13.76-15.28-27.97-31.28-27.94-12.92.02-23.06,7.78-23.03,21.86.02,10.83,7.42,17.16,17.73,21.01,8.31,3.23,14.01,4.77,22.01,7.69,13.86,5.08,22.03,14.97,22.05,29.51.04,19.81-16.71,31.91-40.09,31.95Z"/>
</svg>